# xmcd
# 
# Track frame offsets:
#	150
#	9554
#	25035
#	36041
#	52480
#	70781
#	80325
#	91940
#	103066
#	116981
#	129221
#	143776
#
# Disc length: 2097 seconds
#
# Revision: 1
# Processed by: cddbd v1.4PL0 Copyright (c) Steve Scherf et al.
# Submitted via: Audio-CD-Archiv 2.10.438
#
DISCID=9d082f0c
DTITLE=Various Artist - The Very Best of Country And Western CD3
DYEAR=1900
DGENRE=country
TTITLE0=Boile'm Cabbage Down - The Country All Star Reunion
TTITLE1=Red Light Lady Love - Jack Fender
TTITLE2=Home Sweet Home - The Country All Star reunion
TTITLE3=Rye Whisky - Jack Portland
TTITLE4=Music Brought You Back - Jack Fender
TTITLE5=Portland - The Country All Star reunionl
TTITLE6=Oh Susanna - Tax Miller
TTITLE7=Columbus Stockade - The Country All Star Reunion
TTITLE8=Fine Country Singin' - Jack Fender
TTITLE9=East Virginia - The Country All Star Reunion
TTITLE10=Your Foolish Pride - Don Gibson
TTITLE11=All That Country Lovin'
EXTD=
EXTT0=
EXTT1=
EXTT2=
EXTT3=
EXTT4=
EXTT5=
EXTT6=
EXTT7=
EXTT8=
EXTT9=
EXTT10=
EXTT11=
PLAYORDER=
